Coordinates
version=1
nRows=13
nColumns=40
inDegrees=yes

Units are S.I. units (second, meters, Newtons, ...)
Angles are in degrees.

endheader
time	pelvis_tilt	pelvis_list	pelvis_rotation	pelvis_tx	pelvis_ty	pelvis_tz	hip_flexion_r	hip_adduction_r	hip_rotation_r	knee_angle_r	knee_angle_r_beta	ankle_angle_r	subtalar_angle_r	mtp_angle_r	hip_flexion_l	hip_adduction_l	hip_rotation_l	knee_angle_l	knee_angle_l_beta	ankle_angle_l	subtalar_angle_l	mtp_angle_l	lumbar_extension	lumbar_bending	lumbar_rotation	arm_flex_r	arm_add_r	arm_rot_r	elbow_flex_r	pro_sup_r	wrist_flex_r	wrist_dev_r	arm_flex_l	arm_add_l	arm_rot_l	elbow_flex_l	pro_sup_l	wrist_flex_l	wrist_dev_l
     46.22250000	     -8.42098710	     -5.81536861	      1.71337958	      0.93682986	      0.91787550	      0.48475063	      1.52835001	      0.65019134	    -18.15302961	     21.96745228	     21.96745228	     16.56316068	      8.80087968	     -7.18568478	     31.74241922	     -7.69850304	     -3.09172203	     25.90677097	     25.90677097	      6.33261722	    -15.65098218	     10.29874298	    -10.22083925	      7.11563654	      6.26792495	     27.82223820	    -17.80015219	     -5.71780313	    105.67183539	     44.21627334	      0.00000000	      0.00000000	    -10.57890078	     -7.37235478	      3.29959731	     38.11915578	     45.04404585	      0.00000000	      0.00000000
     46.23400000	     -8.51710902	     -5.73860693	      1.61712539	      0.93691233	      0.91867392	      0.48212468	      2.40261127	     -0.00795893	    -17.54947733	     24.19366220	     24.19366220	     14.54580748	      7.15058261	    -11.77353526	     31.21528839	     -7.53341600	     -3.32442824	     25.92182125	     25.92182125	      7.02468932	    -15.52242179	     10.24476032	    -10.17694099	      7.02307446	      6.01785084	     25.90651259	    -17.31655442	     -6.58997388	    103.09396095	     44.38532760	      0.00000000	      0.00000000	     -9.63860416	     -7.35898210	      0.89626928	     39.96141219	     45.40134225	      0.00000000	      0.00000000
     46.24550000	     -8.59490000	     -5.62814396	      1.45992353	      0.93692863	      0.91942299	      0.47963215	      3.65210223	     -0.84771039	    -16.99565700	     27.28259198	     27.28259198	     13.64501716	      5.98732456	    -12.62169979	     30.61604197	     -7.37904961	     -3.68694815	     25.85915992	     25.85915992	      7.60044527	    -15.33693801	      9.89513953	    -10.15940114	      6.90799714	      6.14042546	     23.70430564	    -17.56550066	     -6.56461180	    101.00074318	     44.44914862	      0.00000000	      0.00000000	     -8.15516390	     -7.66354530	      0.49184238	     40.93670899	     45.47500006	      0.00000000	      0.00000000
     46.25700000	     -8.71217884	     -5.55132748	      1.29748276	      0.93673580	      0.91996891	      0.47731529	      5.21766451	     -1.59564372	    -16.14872746	     30.71665979	     30.71665979	     12.32188458	      4.15658612	    -13.77354154	     30.07090603	     -7.26703076	     -4.05324768	     25.77585080	     25.77585080	      8.08916556	    -15.10319084	      9.47976150	    -10.08882988	      6.83544763	      6.30768921	     21.65061817	    -17.63239930	     -6.92485276	     98.34561855	     44.54408723	      0.00000000	      0.00000000	     -6.72626391	     -7.98590577	     -0.04419699	     42.33645170	     45.56462083	      0.00000000	      0.00000000
     46.26850000	     -8.75951295	     -5.42812851	      1.10951451	      0.93644125	      0.92045797	      0.47520284	      6.91357382	     -2.36018765	    -15.19286184	     34.40143579	     34.40143579	     10.67701207	      2.07778822	    -14.83907929	     29.48288714	     -7.13961755	     -4.48789861	     25.76014460	     25.76014460	      8.57964275	    -14.89756280	      9.02726701	    -10.12286966	      6.67401271	      6.40826382	     19.69272570	    -17.48564995	     -7.24605751	     95.60407188	     44.63907485	      0.00000000	      0.00000000	     -5.27038862	     -8.35207864	     -0.56679207	     43.90644908	     45.65201766	      0.00000000	      0.00000000
     46.28000000	     -8.79522581	     -5.47819279	      0.99309607	      0.93605591	      0.92081300	      0.47334457	      8.61532338	     -2.69608760	    -13.97119567	     37.74846058	     37.74846058	      7.32555813	     -1.63854679	    -19.25583684	     28.89288852	     -7.18183259	     -4.77666506	     25.67612692	     25.67612692	      8.77232454	    -14.66611198	      7.75020186	    -10.09374876	      6.66070103	      5.42339368	     19.28193841	    -16.20700358	     -7.67426493	     90.22173323	     44.85500467	      0.00000000	      0.00000000	     -5.36722228	     -8.74757032	     -2.42953367	     48.29149653	     45.91505601	      0.00000000	      0.00000000
     46.29150000	     -8.76680935	     -5.26266277	      0.77963825	      0.93548151	      0.92112412	      0.47148811	     10.64415182	     -3.48771272	    -12.93610077	     41.88306816	     41.88306816	      5.34560865	     -3.74760725	    -19.18390069	     28.26826453	     -6.97309748	     -5.18587338	     25.72559463	     25.72559463	      9.23911706	    -14.57625765	      7.43200633	    -10.28622833	      6.42576495	      5.66630879	     17.32468243	    -16.24612462	     -7.52060525	     87.95095885	     44.91803698	      0.00000000	      0.00000000	     -3.55410307	     -9.22272230	     -2.81725454	     49.57094839	     45.98605721	      0.00000000	      0.00000000
     46.30300000	     -8.83792714	     -5.17627807	      0.54858830	      0.93476728	      0.92121383	      0.46993489	     12.93489064	     -3.87826168	    -11.56702778	     45.98702893	     45.98702893	      3.09507020	     -6.51509404	    -18.59744394	     27.74672651	     -6.89661254	     -5.48457430	     25.72077485	     25.72077485	      9.72529620	    -14.47464314	      7.06021766	    -10.27289048	      6.30889314	      6.04183522	     15.60348662	    -16.30390589	     -7.74405842	     84.72841244	     45.02530037	      0.00000000	      0.00000000	     -1.93421487	     -9.61573684	     -3.14215540	     51.41762892	     46.05630241	      0.00000000	      0.00000000
     46.31450000	     -8.71825966	     -5.27391551	      0.37619513	      0.93410130	      0.92157457	      0.46858376	     15.01098588	     -3.88537049	    -10.24860168	     49.86192473	     49.86192473	      1.01954776	     -9.18232520	    -16.72975873	     27.09269676	     -7.02694943	     -5.70976172	     25.81881978	     25.81881978	     10.17651855	    -14.31811668	      6.39566709	    -10.42984212	      6.40552848	      5.50011877	     15.46515434	    -15.14441960	     -8.56739892	     78.60268395	     45.25561109	      0.00000000	      0.00000000	     -1.39450713	    -10.46535439	     -3.25169151	     55.30049416	     46.14240980	      0.00000000	      0.00000000
     46.32600000	     -8.66943924	     -5.08923462	      0.19409807	      0.93328898	      0.92173982	      0.46709777	     17.33273008	     -4.32382839	     -9.21148831	     53.87441611	     53.87441611	     -0.39732924	    -10.49979595	    -13.47570657	     26.44955628	     -6.81680045	     -5.93888017	     25.80244088	     25.80244088	     10.56688898	    -14.35934479	      5.95741747	    -10.55504907	      6.19825703	      4.80957994	     15.14542976	    -14.51670996	     -7.86505264	     73.57389828	     45.39471605	      0.00000000	      0.00000000	     -0.76532533	    -11.29627086	     -3.80962721	     58.77306875	     46.29089211	      0.00000000	      0.00000000
     46.33750000	     -8.56027840	     -4.96452861	      0.00547767	      0.93247709	      0.92206236	      0.46582476	     19.56660573	     -4.53902435	     -8.17495417	     57.54499466	     57.54499466	     -1.60991795	    -11.70357453	    -10.09589136	     25.75306048	     -6.68044810	     -6.15169748	     25.80569820	     25.80569820	     11.04013855	    -14.36729813	      5.72908710	    -10.74821001	      6.08783789	      4.65183413	     14.38119321	    -14.14389677	     -7.74069302	     69.03644054	     45.53105516	      0.00000000	      0.00000000	      0.50732785	    -11.97675987	     -4.08452577	     61.43913499	     46.41030493	      0.00000000	      0.00000000
     46.34900000	     -8.41698415	     -4.88768530	     -0.19089129	      0.93169068	      0.92248499	      0.46462991	     21.66560492	     -4.60735449	     -7.22748479	     60.73349202	     60.73349202	     -3.12264489	    -13.06886488	     -8.44878617	     24.99235944	     -6.57598718	     -6.28835286	     25.75089116	     25.75089116	     11.50530787	    -14.45002318	      5.61270544	    -11.01476625	      6.05263020	      5.15960489	     12.80314200	    -14.37013592	     -7.65504941	     65.88904375	     45.62372039	      0.00000000	      0.00000000	      2.43658498	    -12.31266138	     -4.26834336	     63.54851544	     46.48614385	      0.00000000	      0.00000000
     46.36050000	     -8.24699885	     -4.71337583	     -0.37032319	      0.93092522	      0.92297495	      0.46356288	     23.83010978	     -4.77239725	     -6.40713913	     63.89107368	     63.89107368	     -2.97670303	    -13.16201639	     -3.56226135	     24.18126417	     -6.37463718	     -6.49465247	     25.66305578	     25.66305578	     12.01668410	    -14.46530536	      5.63803720	    -11.22133804	      5.89065937	      4.38465451	     12.99485100	    -13.62163910	     -7.22546261	     59.98180597	     45.76771168	      0.00000000	      0.00000000	      3.15934155	    -13.25551537	     -4.78684083	     66.78471607	     46.69113546	      0.00000000	      0.00000000
